<mxfile host="Electron" agent="Mozilla/5.0 (Windows NT 10.0; Win64; x64) AppleWebKit/537.36 (KHTML, like Gecko) draw.io/24.7.17 Chrome/128.0.6613.36 Electron/32.0.1 Safari/537.36" version="24.7.17">
  <diagram name="Страница — 1" id="6dKcLjjxsjvN5Ayz9n6f">
    <mxGraphModel dx="1036" dy="614" grid="1" gridSize="10" guides="1" tooltips="1" connect="1" arrows="1" fold="1" page="1" pageScale="1" pageWidth="827" pageHeight="1169" math="0" shadow="0">
      <root>
        <mxCell id="0" />
        <mxCell id="1" parent="0" />
        <mxCell id="Ik2xViX3Og6YBWLM1i_H-2" value="" style="rounded=1;whiteSpace=wrap;html=1;direction=south;" parent="1" vertex="1">
          <mxGeometry x="40" y="80" width="120" height="240" as="geometry" />
        </mxCell>
        <mxCell id="Ik2xViX3Og6YBWLM1i_H-3" value="" style="rounded=1;whiteSpace=wrap;html=1;direction=south;" parent="1" vertex="1">
          <mxGeometry x="280" y="80" width="200" height="240" as="geometry" />
        </mxCell>
        <mxCell id="Ik2xViX3Og6YBWLM1i_H-4" value="&lt;b&gt;&lt;font style=&quot;font-size: 16px;&quot;&gt;PG&lt;/font&gt;&lt;/b&gt;" style="shape=cylinder3;whiteSpace=wrap;html=1;boundedLbl=1;backgroundOutline=1;size=15;" parent="1" vertex="1">
          <mxGeometry x="600" y="80" width="160" height="240" as="geometry" />
        </mxCell>
        <mxCell id="D3qLeA4y18OjY9VwMxp6-1" value="&lt;b&gt;&lt;font style=&quot;font-size: 16px;&quot;&gt;A&lt;/font&gt;&lt;/b&gt;" style="text;html=1;align=center;verticalAlign=middle;resizable=0;points=[];autosize=1;strokeColor=none;fillColor=none;" vertex="1" parent="1">
          <mxGeometry x="80" y="38" width="40" height="30" as="geometry" />
        </mxCell>
        <mxCell id="D3qLeA4y18OjY9VwMxp6-2" value="&lt;b&gt;&lt;font style=&quot;font-size: 16px;&quot;&gt;B&lt;/font&gt;&lt;/b&gt;&lt;span style=&quot;color: rgba(0, 0, 0, 0); font-family: monospace; font-size: 0px; text-align: start;&quot;&gt;%3CmxGraphModel%3E%3Croot%3E%3CmxCell%20id%3D%220%22%2F%3E%3CmxCell%20id%3D%221%22%20parent%3D%220%22%2F%3E%3CmxCell%20id%3D%222%22%20value%3D%22%26lt%3Bb%26gt%3B%26lt%3Bfont%20style%3D%26quot%3Bfont-size%3A%2016px%3B%26quot%3B%26gt%3BA%26lt%3B%2Ffont%26gt%3B%26lt%3B%2Fb%26gt%3B%22%20style%3D%22text%3Bhtml%3D1%3Balign%3Dcenter%3BverticalAlign%3Dmiddle%3Bresizable%3D0%3Bpoints%3D%5B%5D%3Bautosize%3D1%3BstrokeColor%3Dnone%3BfillColor%3Dnone%3B%22%20vertex%3D%221%22%20parent%3D%221%22%3E%3CmxGeometry%20x%3D%2280%22%20y%3D%2238%22%20width%3D%2240%22%20height%3D%2230%22%20as%3D%22geometry%22%2F%3E%3C%2FmxCell%3E%3C%2Froot%3E%3C%2FmxGraphModel%3E&lt;/span&gt;" style="text;html=1;align=center;verticalAlign=middle;resizable=0;points=[];autosize=1;strokeColor=none;fillColor=none;" vertex="1" parent="1">
          <mxGeometry x="360" y="38" width="40" height="30" as="geometry" />
        </mxCell>
        <mxCell id="D3qLeA4y18OjY9VwMxp6-3" value="&lt;b&gt;&lt;font style=&quot;font-size: 16px;&quot;&gt;C&lt;/font&gt;&lt;/b&gt;" style="text;html=1;align=center;verticalAlign=middle;resizable=0;points=[];autosize=1;strokeColor=none;fillColor=none;" vertex="1" parent="1">
          <mxGeometry x="660" y="38" width="40" height="30" as="geometry" />
        </mxCell>
        <mxCell id="D3qLeA4y18OjY9VwMxp6-4" value="" style="ellipse;whiteSpace=wrap;html=1;aspect=fixed;" vertex="1" parent="1">
          <mxGeometry x="90" y="290" width="20" height="20" as="geometry" />
        </mxCell>
        <mxCell id="D3qLeA4y18OjY9VwMxp6-6" value="&lt;b style=&quot;forced-color-adjust: none; color: rgb(0, 0, 0); font-family: Helvetica; font-size: 12px; font-style: normal; font-variant-ligatures: normal; font-variant-caps: normal; letter-spacing: normal; orphans: 2; text-align: center; text-indent: 0px; text-transform: none; widows: 2; word-spacing: 0px; -webkit-text-stroke-width: 0px; white-space: nowrap; background-color: rgb(251, 251, 251); text-decoration-thickness: initial; text-decoration-style: initial; text-decoration-color: initial;&quot;&gt;&lt;font style=&quot;forced-color-adjust: none; font-size: 16px;&quot;&gt;A - фронтенд, мобильное приложение&lt;/font&gt;&lt;/b&gt;&lt;div&gt;&lt;b style=&quot;forced-color-adjust: none; color: rgb(0, 0, 0); font-family: Helvetica; font-size: 12px; font-style: normal; font-variant-ligatures: normal; font-variant-caps: normal; letter-spacing: normal; orphans: 2; text-align: center; text-indent: 0px; text-transform: none; widows: 2; word-spacing: 0px; -webkit-text-stroke-width: 0px; white-space: nowrap; background-color: rgb(251, 251, 251); text-decoration-thickness: initial; text-decoration-style: initial; text-decoration-color: initial;&quot;&gt;&lt;font style=&quot;forced-color-adjust: none; font-size: 16px;&quot;&gt;&lt;br&gt;&lt;/font&gt;&lt;/b&gt;&lt;/div&gt;&lt;div&gt;&lt;b style=&quot;forced-color-adjust: none; color: rgb(0, 0, 0); font-family: Helvetica; font-size: 12px; font-style: normal; font-variant-ligatures: normal; font-variant-caps: normal; letter-spacing: normal; orphans: 2; text-align: center; text-indent: 0px; text-transform: none; widows: 2; word-spacing: 0px; -webkit-text-stroke-width: 0px; white-space: nowrap; background-color: rgb(251, 251, 251); text-decoration-thickness: initial; text-decoration-style: initial; text-decoration-color: initial;&quot;&gt;&lt;font style=&quot;forced-color-adjust: none; font-size: 16px;&quot;&gt;B - бэкенд/ сервер&lt;/font&gt;&lt;/b&gt;&lt;/div&gt;&lt;div&gt;&lt;b style=&quot;forced-color-adjust: none; color: rgb(0, 0, 0); font-family: Helvetica; font-size: 12px; font-style: normal; font-variant-ligatures: normal; font-variant-caps: normal; letter-spacing: normal; orphans: 2; text-align: center; text-indent: 0px; text-transform: none; widows: 2; word-spacing: 0px; -webkit-text-stroke-width: 0px; white-space: nowrap; background-color: rgb(251, 251, 251); text-decoration-thickness: initial; text-decoration-style: initial; text-decoration-color: initial;&quot;&gt;&lt;font style=&quot;forced-color-adjust: none; font-size: 16px;&quot;&gt;&lt;br&gt;&lt;/font&gt;&lt;/b&gt;&lt;/div&gt;&lt;div&gt;&lt;b style=&quot;forced-color-adjust: none; color: rgb(0, 0, 0); font-family: Helvetica; font-size: 12px; font-style: normal; font-variant-ligatures: normal; font-variant-caps: normal; letter-spacing: normal; orphans: 2; text-align: center; text-indent: 0px; text-transform: none; widows: 2; word-spacing: 0px; -webkit-text-stroke-width: 0px; white-space: nowrap; background-color: rgb(251, 251, 251); text-decoration-thickness: initial; text-decoration-style: initial; text-decoration-color: initial;&quot;&gt;&lt;font style=&quot;forced-color-adjust: none; font-size: 16px;&quot;&gt;C - Реляционная база данных, PG&lt;/font&gt;&lt;/b&gt;&lt;/div&gt;" style="text;whiteSpace=wrap;html=1;" vertex="1" parent="1">
          <mxGeometry x="40" y="360" width="50" height="40" as="geometry" />
        </mxCell>
        <mxCell id="D3qLeA4y18OjY9VwMxp6-7" value="&lt;span style=&quot;forced-color-adjust: none; color: rgb(0, 0, 0); font-family: Helvetica; font-size: 12px; font-style: normal; font-variant-ligatures: normal; font-variant-caps: normal; letter-spacing: normal; orphans: 2; text-indent: 0px; text-transform: none; widows: 2; word-spacing: 0px; -webkit-text-stroke-width: 0px; white-space: nowrap; text-decoration-thickness: initial; text-decoration-style: initial; text-decoration-color: initial; text-align: center; background-color: rgb(251, 251, 251);&quot;&gt;&lt;font style=&quot;forced-color-adjust: none; font-size: 16px;&quot;&gt;1 - протокол взаимодействия HTTP/ HTTPS&lt;/font&gt;&lt;/span&gt;&lt;div style=&quot;forced-color-adjust: none; color: rgb(0, 0, 0); font-family: Helvetica; font-size: 12px; font-style: normal; font-variant-ligatures: normal; font-variant-caps: normal; letter-spacing: normal; orphans: 2; text-align: left; text-indent: 0px; text-transform: none; widows: 2; word-spacing: 0px; -webkit-text-stroke-width: 0px; white-space: normal; background-color: rgb(251, 251, 251); text-decoration-thickness: initial; text-decoration-style: initial; text-decoration-color: initial;&quot;&gt;&lt;span style=&quot;forced-color-adjust: none; color: rgb(0, 0, 0); font-family: Helvetica; font-size: 12px; font-style: normal; font-variant-ligatures: normal; font-variant-caps: normal; letter-spacing: normal; orphans: 2; text-align: center; text-indent: 0px; text-transform: none; widows: 2; word-spacing: 0px; -webkit-text-stroke-width: 0px; white-space: nowrap; background-color: rgb(251, 251, 251); text-decoration-thickness: initial; text-decoration-style: initial; text-decoration-color: initial;&quot;&gt;&lt;font style=&quot;forced-color-adjust: none; font-size: 16px;&quot;&gt;&lt;br style=&quot;forced-color-adjust: none;&quot;&gt;&lt;/font&gt;&lt;/span&gt;&lt;/div&gt;&lt;div style=&quot;forced-color-adjust: none; color: rgb(0, 0, 0); font-family: Helvetica; font-size: 12px; font-style: normal; font-variant-ligatures: normal; font-variant-caps: normal; letter-spacing: normal; orphans: 2; text-align: left; text-indent: 0px; text-transform: none; widows: 2; word-spacing: 0px; -webkit-text-stroke-width: 0px; white-space: normal; background-color: rgb(251, 251, 251); text-decoration-thickness: initial; text-decoration-style: initial; text-decoration-color: initial;&quot;&gt;&lt;span style=&quot;forced-color-adjust: none; color: rgb(0, 0, 0); font-family: Helvetica; font-size: 12px; font-style: normal; font-variant-ligatures: normal; font-variant-caps: normal; letter-spacing: normal; orphans: 2; text-align: center; text-indent: 0px; text-transform: none; widows: 2; word-spacing: 0px; -webkit-text-stroke-width: 0px; white-space: nowrap; background-color: rgb(251, 251, 251); text-decoration-thickness: initial; text-decoration-style: initial; text-decoration-color: initial;&quot;&gt;&lt;font style=&quot;forced-color-adjust: none; font-size: 16px;&quot;&gt;2 - протокол взаимодействия TCP/ IP&lt;/font&gt;&lt;/span&gt;&lt;/div&gt;" style="text;whiteSpace=wrap;html=1;" vertex="1" parent="1">
          <mxGeometry x="40" y="480" width="340" height="120" as="geometry" />
        </mxCell>
        <mxCell id="D3qLeA4y18OjY9VwMxp6-10" value="" style="edgeStyle=orthogonalEdgeStyle;rounded=0;orthogonalLoop=1;jettySize=auto;html=1;strokeWidth=3;" edge="1" parent="1" source="D3qLeA4y18OjY9VwMxp6-8" target="Ik2xViX3Og6YBWLM1i_H-3">
          <mxGeometry relative="1" as="geometry" />
        </mxCell>
        <mxCell id="D3qLeA4y18OjY9VwMxp6-11" value="" style="edgeStyle=orthogonalEdgeStyle;rounded=0;orthogonalLoop=1;jettySize=auto;html=1;strokeWidth=3;" edge="1" parent="1" source="D3qLeA4y18OjY9VwMxp6-8" target="Ik2xViX3Og6YBWLM1i_H-2">
          <mxGeometry relative="1" as="geometry" />
        </mxCell>
        <mxCell id="D3qLeA4y18OjY9VwMxp6-8" value="&lt;b style=&quot;&quot;&gt;&lt;font style=&quot;font-size: 16px;&quot;&gt;1&lt;/font&gt;&lt;/b&gt;" style="text;html=1;align=center;verticalAlign=middle;resizable=0;points=[];autosize=1;strokeColor=none;fillColor=none;strokeWidth=1;fontSize=16;" vertex="1" parent="1">
          <mxGeometry x="205" y="185" width="30" height="30" as="geometry" />
        </mxCell>
        <mxCell id="D3qLeA4y18OjY9VwMxp6-12" value="" style="edgeStyle=orthogonalEdgeStyle;rounded=0;orthogonalLoop=1;jettySize=auto;html=1;strokeWidth=3;" edge="1" parent="1" source="D3qLeA4y18OjY9VwMxp6-9" target="Ik2xViX3Og6YBWLM1i_H-3">
          <mxGeometry relative="1" as="geometry" />
        </mxCell>
        <mxCell id="D3qLeA4y18OjY9VwMxp6-13" value="" style="edgeStyle=orthogonalEdgeStyle;rounded=0;orthogonalLoop=1;jettySize=auto;html=1;strokeWidth=3;" edge="1" parent="1" source="D3qLeA4y18OjY9VwMxp6-9" target="Ik2xViX3Og6YBWLM1i_H-4">
          <mxGeometry relative="1" as="geometry" />
        </mxCell>
        <mxCell id="D3qLeA4y18OjY9VwMxp6-9" value="&lt;b style=&quot;font-size: 16px;&quot;&gt;&lt;font style=&quot;font-size: 16px;&quot;&gt;2&lt;/font&gt;&lt;/b&gt;" style="text;html=1;align=center;verticalAlign=middle;resizable=0;points=[];autosize=1;strokeColor=none;fillColor=none;fontSize=16;" vertex="1" parent="1">
          <mxGeometry x="525" y="185" width="30" height="30" as="geometry" />
        </mxCell>
      </root>
    </mxGraphModel>
  </diagram>
</mxfile>
